<mxfile host="app.diagrams.net" modified="2023-12-13T11:22:19.153Z" agent="Mozilla/5.0 (Windows NT 10.0; Win64; x64) AppleWebKit/537.36 (KHTML, like Gecko) Chrome/120.0.0.0 Safari/537.36 Edg/120.0.0.0" version="22.1.8" etag="xCjJTI5Ob7KEo5LQz8Ah" type="github">
  <diagram name="第 1 页" id="DvLXVlTdPtGEHAt6glur">
    <mxGraphModel>
      <root>
        <mxCell id="0" />
        <mxCell id="1" parent="0" />
      </root>
    </mxGraphModel>
  </diagram>
</mxfile>
